<?xml version="1.0" encoding="utf-8"?>
<!-- Generator: Adobe Illustrator 28.2.0, SVG Export Plug-In . SVG Version: 6.00 Build 0)  -->
<svg version="1.1" id="Layer_1" xmlns="http://www.w3.org/2000/svg" xmlns:xlink="http://www.w3.org/1999/xlink" x="0px" y="0px"
	 viewBox="0 0 24 24" style="enable-background:new 0 0 24 24;" xml:space="preserve">
<g id="videogame_asset_black_24dp_00000061460904602740479890000010232420376689246385_">
	<path id="Path_715" d="M20,6h-8l-2-2H4C2.9,4,2,4.9,2,6v0l0,12c0,1.1,0.9,2,2,2c0,0,0,0,0,0h16c1.1,0,2-0.9,2-2c0,0,0,0,0,0V8
		C22,6.9,21.1,6,20,6C20,6,20,6,20,6z M7.1,17l3-4l2,2.7l3-3.7l4,5H7.1z"/>
</g>
</svg>
