<?xml version="1.0" encoding="utf-8"?>
<!-- Generator: Adobe Illustrator 28.2.0, SVG Export Plug-In . SVG Version: 6.00 Build 0)  -->
<svg version="1.1" id="Layer_1" xmlns="http://www.w3.org/2000/svg" xmlns:xlink="http://www.w3.org/1999/xlink" x="0px" y="0px"
	 viewBox="0 0 24 24" style="enable-background:new 0 0 24 24;" xml:space="preserve">
<g id="videogame_asset_black_24dp">
	<path id="Path_724" d="M21,11V9h-2V6.7c0-1-0.8-1.7-1.8-1.8H15V3h-2v2h-2V3H9v2H6.8C5.8,5,5,5.8,5,6.7V9H3v2h2v2H3v2h2v2.2
		c0,1,0.8,1.7,1.8,1.8H9v2h2v-2h2v2h2v-2h2.2c1,0,1.7-0.8,1.8-1.8V15h2v-2h-2v-2H21z M9.4,13.7l1.8,2.4l2.6-3.2l3.2,4.1V17H7v-0.1
		L9.4,13.7z"/>
</g>
</svg>
