<svg xmlns="http://www.w3.org/2000/svg" width="0.9in" height="1.5in" viewBox="0 0 64.62 108">
  <defs>
    <style>
      .a {
        fill: #d42026;
      }
    </style>
  </defs>
  <g>
    <path class="a" d="M32,50a5.41,5.41,0,0,0-3.86-7s0-.08,0-.12h0a12.88,12.88,0,0,0-.49-3.19c-.27-1-.62-2-.94-2.93A15,15,0,0,1,26,34a5.39,5.39,0,0,1,.26-2.65,6.85,6.85,0,0,1,1.54-2.29,8.33,8.33,0,0,0,1.81-2.69,5.78,5.78,0,0,0,.3-3.29,7.65,7.65,0,0,0-1.36-2.93,12.93,12.93,0,0,0-1-1.2c-.35-.37-.67-.72-1-1.1a6.34,6.34,0,0,1-1.23-2.53,4.52,4.52,0,0,1,.32-2.73,8.68,8.68,0,0,1,1.62-2.4c.34-.35.71-.72,1-1.11a5.91,5.91,0,0,0,.49-.63,2.43,2.43,0,0,0,.36-.78,1.49,1.49,0,0,0,0-.91A2.87,2.87,0,0,0,28.69,6a10.46,10.46,0,0,0-1.05-1.15c-.36-.35-.72-.7-1-1.07a2.41,2.41,0,0,1-.66-1.19,1.83,1.83,0,0,1,.5-1.22,14.85,14.85,0,0,1,1-1.12h0a.18.18,0,0,0,0-.24.18.18,0,0,0-.25,0,14,14,0,0,0-1.05,1.12,3.48,3.48,0,0,0-.45.66,1.7,1.7,0,0,0-.18.84,2,2,0,0,0,.27.8,4.5,4.5,0,0,0,.47.65c.33.4.69.77,1,1.13a12.29,12.29,0,0,1,1,1.11,2.19,2.19,0,0,1,.32.6,1,1,0,0,1,0,.58,3.23,3.23,0,0,1-.75,1.13c-.33.37-.69.7-1.06,1.08A9.38,9.38,0,0,0,25,12.3a5.92,5.92,0,0,0-.47,1.55,5,5,0,0,0,0,1.63,7.07,7.07,0,0,0,1.32,2.92,14.78,14.78,0,0,0,1,1.2,10.72,10.72,0,0,1,.91,1.13,6.54,6.54,0,0,1,1.11,2.56,4.54,4.54,0,0,1-.32,2.65,7.13,7.13,0,0,1-1.62,2.26A8,8,0,0,0,25,30.87a6.2,6.2,0,0,0-.43,1.64,7.09,7.09,0,0,0,0,1.66,15.83,15.83,0,0,0,.7,3.09c.3,1,.61,1.93.83,2.87a11.32,11.32,0,0,1,.36,2.8v0h0A5.38,5.38,0,0,0,22,50l.75,2.26a5.41,5.41,0,0,1,0,3.42L22,58a5.39,5.39,0,0,0,4.19,7s0,0,0,.06h0a12.88,12.88,0,0,0,.49,3.19c.27,1,.62,2,.94,2.93a15,15,0,0,1,.73,2.8,5.39,5.39,0,0,1-.26,2.65,6.85,6.85,0,0,1-1.54,2.29,8.5,8.5,0,0,0-1.81,2.69,5.78,5.78,0,0,0-.3,3.29,7.65,7.65,0,0,0,1.36,2.93,12.93,12.93,0,0,0,1,1.2c.35.37.67.72,1,1.1A6.34,6.34,0,0,1,29,92.67a4.52,4.52,0,0,1-.32,2.73A8.68,8.68,0,0,1,27,97.8c-.34.35-.71.72-1,1.11a7.57,7.57,0,0,0-.49.63,2.43,2.43,0,0,0-.36.78,1.49,1.49,0,0,0,.05.91,2.87,2.87,0,0,0,.41.73,10.46,10.46,0,0,0,1.05,1.15c.36.35.72.7,1,1.07a2.41,2.41,0,0,1,.66,1.19,1.79,1.79,0,0,1-.5,1.22,14.85,14.85,0,0,1-1,1.12h0a.18.18,0,0,0,0,.24.18.18,0,0,0,.25,0,14,14,0,0,0,1.05-1.12,3.48,3.48,0,0,0,.45-.66,1.7,1.7,0,0,0,.18-.84,2,2,0,0,0-.27-.8,4.5,4.5,0,0,0-.47-.65c-.33-.4-.69-.77-1-1.13a11,11,0,0,1-1-1.11,2.19,2.19,0,0,1-.32-.6,1,1,0,0,1,0-.58,3.23,3.23,0,0,1,.75-1.13c.33-.37.69-.7,1.06-1.08a9.38,9.38,0,0,0,1.82-2.55,5.92,5.92,0,0,0,.47-1.55,5,5,0,0,0,0-1.63,7.07,7.07,0,0,0-1.32-2.92,14.78,14.78,0,0,0-1-1.2,10.72,10.72,0,0,1-.91-1.13,6.54,6.54,0,0,1-1.11-2.56,4.54,4.54,0,0,1,.32-2.65,7.13,7.13,0,0,1,1.62-2.26,8,8,0,0,0,1.88-2.67,6.2,6.2,0,0,0,.43-1.64,7.09,7.09,0,0,0,0-1.66,15.83,15.83,0,0,0-.7-3.09c-.3-1-.61-1.93-.83-2.87a11.32,11.32,0,0,1-.36-2.8V65A5.39,5.39,0,0,0,32,58l-.76-2.26a5.41,5.41,0,0,1,0-3.42Z" transform="translate(-21.69 0)"/>
    <path class="a" d="M54.67,5.87A5.54,5.54,0,0,0,49.13.33h0a5.54,5.54,0,0,0-5.54,5.54v7.22H42v2h3a29,29,0,0,0,.68,4.55,14,14,0,0,1,.43,4.58,8.09,8.09,0,0,1-.22,1.09,7.57,7.57,0,0,1-.4,1c0,.09-.09.17-.13.25l-.14.27c-.11.19-.2.39-.29.58a7.84,7.84,0,0,0-.44,1.23,8.06,8.06,0,0,0-.28,2.58,8.57,8.57,0,0,0,.52,2.52,10,10,0,0,0,.5,1.17c.09.19.19.37.29.56s.19.34.28.51a8.1,8.1,0,0,1,.75,2.17,6.47,6.47,0,0,1,0,2.28,8.05,8.05,0,0,1-.69,2.22,15.41,15.41,0,0,0-1.06,2.23,2.25,2.25,0,0,0-.09.69,2.15,2.15,0,0,0,.12.67,5.73,5.73,0,0,0,.55,1.14c.2.36.41.7.6,1a3.32,3.32,0,0,1,.39,1.06,2.1,2.1,0,0,1-.2,1.08,9.53,9.53,0,0,1-.53,1.06h0a.17.17,0,0,0,.06.23.17.17,0,0,0,.24-.06,10.21,10.21,0,0,0,.59-1.08,2.5,2.5,0,0,0,.26-1.28,3.72,3.72,0,0,0-.39-1.22c-.19-.38-.39-.73-.58-1.08a7,7,0,0,1-.47-1.06,1.72,1.72,0,0,1,0-1,5.76,5.76,0,0,1,.49-1c.2-.34.42-.7.61-1.07a8.51,8.51,0,0,0,.83-2.38,7.52,7.52,0,0,0,.06-2.55,9.38,9.38,0,0,0-.75-2.43l-.28-.56c-.09-.18-.18-.35-.26-.52q-.24-.54-.42-1.08A7.28,7.28,0,0,1,45.62,29,6.28,6.28,0,0,1,46,28c.08-.17.17-.34.26-.5l.16-.27.15-.28a8,8,0,0,0,.52-1.21,8.23,8.23,0,0,0,.31-1.28,10.74,10.74,0,0,0,.07-2.59c-.07-.85-.21-1.67-.34-2.47a26.84,26.84,0,0,1-.51-4.27h4.8a29,29,0,0,0,.68,4.55,14,14,0,0,1,.43,4.58,8.09,8.09,0,0,1-.22,1.09,6.5,6.5,0,0,1-.41,1,1.92,1.92,0,0,1-.12.25l-.14.27c-.11.19-.2.39-.29.58A7.84,7.84,0,0,0,51,28.68a8.06,8.06,0,0,0-.28,2.58,8.57,8.57,0,0,0,.52,2.52,10,10,0,0,0,.5,1.17c.09.19.19.37.29.56s.19.34.28.51A8.1,8.1,0,0,1,53,38.19a6.47,6.47,0,0,1,0,2.28,8.05,8.05,0,0,1-.69,2.22,15.41,15.41,0,0,0-1.06,2.23,2.25,2.25,0,0,0-.09.69,2.15,2.15,0,0,0,.12.67,5.73,5.73,0,0,0,.55,1.14c.2.36.41.7.6,1a3.32,3.32,0,0,1,.39,1.06,2.1,2.1,0,0,1-.2,1.08,9.53,9.53,0,0,1-.53,1.06h0a.17.17,0,0,0,.06.23.17.17,0,0,0,.24-.06A10.21,10.21,0,0,0,53,50.76a2.5,2.5,0,0,0,.26-1.28,3.51,3.51,0,0,0-.4-1.22c-.18-.38-.38-.73-.57-1.08a7,7,0,0,1-.47-1.06,1.72,1.72,0,0,1,0-1,5.76,5.76,0,0,1,.49-1c.2-.34.42-.7.61-1.07a8.51,8.51,0,0,0,.83-2.38,7.28,7.28,0,0,0,0-2.55,8.67,8.67,0,0,0-.75-2.43c-.08-.19-.18-.38-.27-.56l-.26-.52q-.24-.54-.42-1.08A7.28,7.28,0,0,1,52.07,29a6.28,6.28,0,0,1,.42-1c.08-.17.17-.34.26-.5l.15-.27c.06-.09.11-.19.16-.28a9.19,9.19,0,0,0,.52-1.21,8.23,8.23,0,0,0,.31-1.28A10.74,10.74,0,0,0,54,21.84c-.07-.85-.21-1.67-.35-2.47a28,28,0,0,1-.5-4.27h3.15v-2H54.67Z" transform="translate(-21.69 0)"/>
    <path class="a" d="M54,54H44.25a.66.66,0,0,0-.66.66v12.1a1.13,1.13,0,0,1,0,2v1.35a.66.66,0,0,0,.66.66H45a27.21,27.21,0,0,0,.69,5,14,14,0,0,1,.43,4.59,8,8,0,0,1-.22,1.08,8.24,8.24,0,0,1-.4,1c0,.08-.09.16-.13.25l-.14.26c-.11.19-.2.39-.29.58a7.84,7.84,0,0,0-.44,1.23,8.06,8.06,0,0,0-.28,2.58,8.57,8.57,0,0,0,.52,2.52,10,10,0,0,0,.5,1.17c.09.19.19.37.29.56s.19.34.28.51a8.1,8.1,0,0,1,.75,2.17,6.47,6.47,0,0,1,0,2.28,8.05,8.05,0,0,1-.69,2.22A15.41,15.41,0,0,0,44.84,101a2.25,2.25,0,0,0-.09.69,2.15,2.15,0,0,0,.12.67,5.73,5.73,0,0,0,.55,1.14c.2.36.41.7.6,1.05a3.41,3.41,0,0,1,.39,1.06,2.1,2.1,0,0,1-.2,1.08,9.53,9.53,0,0,1-.53,1.06h0a.17.17,0,0,0,.3.18,10.36,10.36,0,0,0,.59-1.09,2.5,2.5,0,0,0,.26-1.28,3.72,3.72,0,0,0-.39-1.22c-.19-.38-.39-.73-.58-1.08a7,7,0,0,1-.47-1.06,1.72,1.72,0,0,1,0-1,6.1,6.1,0,0,1,.49-1c.2-.34.42-.7.61-1.07a8.51,8.51,0,0,0,.83-2.38,7.52,7.52,0,0,0,.06-2.55,9.38,9.38,0,0,0-.75-2.43l-.28-.56c-.09-.17-.18-.35-.26-.52a11,11,0,0,1-.42-1.08,7.28,7.28,0,0,1-.06-4.45A6.28,6.28,0,0,1,46,84c.08-.17.17-.34.26-.5l.16-.27.15-.28a7.61,7.61,0,0,0,.52-1.21,8.23,8.23,0,0,0,.31-1.28,10.74,10.74,0,0,0,.07-2.59c-.07-.85-.21-1.66-.34-2.47a24.52,24.52,0,0,1-.51-4.67h4.79a26.36,26.36,0,0,0,.69,5,14,14,0,0,1,.43,4.59,8,8,0,0,1-.22,1.08,7,7,0,0,1-.41,1c0,.08-.08.16-.12.25l-.14.26c-.11.19-.2.39-.29.58A7.84,7.84,0,0,0,51,84.75a8.06,8.06,0,0,0-.28,2.58,8.57,8.57,0,0,0,.52,2.52,10,10,0,0,0,.5,1.17c.09.19.19.37.29.56s.19.34.28.51A8.1,8.1,0,0,1,53,94.26a6.47,6.47,0,0,1,0,2.28,8.05,8.05,0,0,1-.69,2.22A15.41,15.41,0,0,0,51.29,101a2.25,2.25,0,0,0-.09.69,2.15,2.15,0,0,0,.12.67,5.73,5.73,0,0,0,.55,1.14c.2.36.41.7.6,1.05a3.41,3.41,0,0,1,.39,1.06,2.1,2.1,0,0,1-.2,1.08,9.53,9.53,0,0,1-.53,1.06h0a.17.17,0,0,0,.3.18,10.36,10.36,0,0,0,.59-1.09,2.5,2.5,0,0,0,.26-1.28,3.51,3.51,0,0,0-.4-1.22c-.18-.38-.38-.73-.57-1.08a7,7,0,0,1-.47-1.06,1.72,1.72,0,0,1,0-1,6.1,6.1,0,0,1,.49-1c.2-.34.42-.7.61-1.07a8.51,8.51,0,0,0,.83-2.38,7.28,7.28,0,0,0,0-2.55,8.67,8.67,0,0,0-.75-2.43c-.08-.19-.18-.38-.27-.56s-.18-.35-.26-.52a11,11,0,0,1-.42-1.08,7.28,7.28,0,0,1-.06-4.45,6.28,6.28,0,0,1,.42-1c.08-.17.17-.34.26-.5l.15-.27a2.54,2.54,0,0,0,.16-.28,8.65,8.65,0,0,0,.52-1.21,8.23,8.23,0,0,0,.31-1.28A10.74,10.74,0,0,0,54,77.91c-.07-.85-.21-1.66-.35-2.47a25.33,25.33,0,0,1-.5-4.67H54a.66.66,0,0,0,.66-.66V68.76a1.13,1.13,0,0,1,0-2V54.66A.66.66,0,0,0,54,54Z" transform="translate(-21.69 0)"/>
    <path class="a" d="M84.38,3.68A1.8,1.8,0,0,1,85,3.49a3.68,3.68,0,0,1,.58-.07,2.28,2.28,0,0,1,.58,0h.06a.16.16,0,0,0,.13-.19.17.17,0,0,0-.19-.12,2.88,2.88,0,0,1-.58,0A5.41,5.41,0,0,1,85,3.11a2.1,2.1,0,0,1-.58-.2,1.54,1.54,0,0,1-.56-.41,1.58,1.58,0,0,1,.56-.42,2.1,2.1,0,0,1,.58-.2,5.42,5.42,0,0,1,.58-.06,2.28,2.28,0,0,1,.58,0,.06.06,0,0,0,.06,0,.16.16,0,0,0,.13-.19.17.17,0,0,0-.19-.12,2.88,2.88,0,0,1-.58,0A5.41,5.41,0,0,1,85,1.51a2.1,2.1,0,0,1-.58-.2A1.42,1.42,0,0,1,83.8.87V.36H66.29V.87a1.49,1.49,0,0,1-.58.44,2.22,2.22,0,0,1-.58.2,5.73,5.73,0,0,1-.58.07,2.83,2.83,0,0,1-.58,0,.08.08,0,0,0-.07,0,.16.16,0,0,0-.12.19.15.15,0,0,0,.19.12,2.26,2.26,0,0,1,.58,0,5.7,5.7,0,0,1,.58.06,2.22,2.22,0,0,1,.58.2,1.58,1.58,0,0,1,.56.42,1.54,1.54,0,0,1-.56.41,2.22,2.22,0,0,1-.58.2,5.73,5.73,0,0,1-.58.07,2.83,2.83,0,0,1-.58,0,.16.16,0,0,0-.07,0,.16.16,0,0,0-.12.19.15.15,0,0,0,.19.12,2.26,2.26,0,0,1,.58,0,3.83,3.83,0,0,1,.58.07,1.88,1.88,0,0,1,.58.19,1.52,1.52,0,0,1,.52.37,1.36,1.36,0,0,1-.52.36,1.88,1.88,0,0,1-.58.19,3.83,3.83,0,0,1-.58.07,2.27,2.27,0,0,1-.58,0h-.06a.15.15,0,0,0-.12.19.15.15,0,0,0,.18.12,2.83,2.83,0,0,1,.58,0,3.83,3.83,0,0,1,.58.07,1.88,1.88,0,0,1,.58.19,1.55,1.55,0,0,1,.58.43h0a1.43,1.43,0,0,1-.58.45,1.88,1.88,0,0,1-.58.19,3.83,3.83,0,0,1-.58.07,2.26,2.26,0,0,1-.58,0H63.9a.16.16,0,0,0-.12.19.16.16,0,0,0,.19.12,2.83,2.83,0,0,1,.58,0,5.73,5.73,0,0,1,.58.07,2.22,2.22,0,0,1,.58.2,1.52,1.52,0,0,1,.52.37,1.48,1.48,0,0,1-.52.36,2.19,2.19,0,0,1-.58.19,3.83,3.83,0,0,1-.58.07,2.83,2.83,0,0,1-.58,0h-.06a.15.15,0,0,0-.12.18.14.14,0,0,0,.18.12,2.82,2.82,0,0,1,.58,0,5.7,5.7,0,0,1,.58.06,2.22,2.22,0,0,1,.58.2,1.36,1.36,0,0,1,.58.43v0a1.43,1.43,0,0,1-.58.45,1.88,1.88,0,0,1-.58.19,3.83,3.83,0,0,1-.58.07,2.26,2.26,0,0,1-.58,0H63.9a.16.16,0,0,0-.12.19.16.16,0,0,0,.19.12,2.83,2.83,0,0,1,.58,0,3.83,3.83,0,0,1,.58.07,2.22,2.22,0,0,1,.58.2,1.49,1.49,0,0,1,.58.44v0a1.36,1.36,0,0,1-.58.43,1.88,1.88,0,0,1-.58.19,3.83,3.83,0,0,1-.58.07,2.27,2.27,0,0,1-.58,0h-.06a.15.15,0,0,0-.12.19.15.15,0,0,0,.18.12,2.83,2.83,0,0,1,.58,0,3.83,3.83,0,0,1,.58.07,1.88,1.88,0,0,1,.58.19,1.57,1.57,0,0,1,.57.41,1.34,1.34,0,0,1-.57.43,1.91,1.91,0,0,1-.58.2,3.83,3.83,0,0,1-.58.07,2.83,2.83,0,0,1-.58,0H63.9A.16.16,0,0,0,64,13a2.27,2.27,0,0,1,.58,0,3.83,3.83,0,0,1,.58.07,1.91,1.91,0,0,1,.58.2,1.49,1.49,0,0,1,.58.44v0a1.55,1.55,0,0,1-.58.43,1.88,1.88,0,0,1-.58.19,3.83,3.83,0,0,1-.58.07,2.83,2.83,0,0,1-.58,0h-.06a.15.15,0,0,0-.12.18.16.16,0,0,0,.18.13,2.27,2.27,0,0,1,.58,0,3.83,3.83,0,0,1,.58.07,1.88,1.88,0,0,1,.58.19,1.36,1.36,0,0,1,.58.43v0a1.49,1.49,0,0,1-.58.44,2.22,2.22,0,0,1-.58.2,5.73,5.73,0,0,1-.58.07A2.83,2.83,0,0,1,64,16H63.9a.16.16,0,0,0-.12.19.15.15,0,0,0,.19.12,2.26,2.26,0,0,1,.58,0,3.83,3.83,0,0,1,.58.07,1.88,1.88,0,0,1,.58.19,1.52,1.52,0,0,1,.52.37,1.36,1.36,0,0,1-.52.36,1.88,1.88,0,0,1-.58.19,3.83,3.83,0,0,1-.58.07,2.27,2.27,0,0,1-.58,0h-.06a.15.15,0,0,0-.12.19.15.15,0,0,0,.18.12,2.83,2.83,0,0,1,.58,0,3.83,3.83,0,0,1,.58.07,1.88,1.88,0,0,1,.58.19,1.55,1.55,0,0,1,.58.43v0a1.49,1.49,0,0,1-.58.44,2.22,2.22,0,0,1-.58.2,5.73,5.73,0,0,1-.58.07,2.83,2.83,0,0,1-.58,0,.08.08,0,0,0-.07,0,.16.16,0,0,0-.12.19.15.15,0,0,0,.19.12,2.26,2.26,0,0,1,.58,0,3.83,3.83,0,0,1,.58.07,1.88,1.88,0,0,1,.58.19,1.43,1.43,0,0,1,.58.45v0a1.55,1.55,0,0,1-.58.43,2.19,2.19,0,0,1-.58.19,5.7,5.7,0,0,1-.58.06,2.26,2.26,0,0,1-.58,0,.06.06,0,0,0-.06,0,.15.15,0,0,0-.12.18.14.14,0,0,0,.18.12,2.26,2.26,0,0,1,.58,0,5.7,5.7,0,0,1,.58.06,2.62,2.62,0,0,1,.58.19,1.61,1.61,0,0,1,.57.42,1.53,1.53,0,0,1-.57.43,1.88,1.88,0,0,1-.58.19,3.83,3.83,0,0,1-.58.07,2.26,2.26,0,0,1-.58,0H63.9a.16.16,0,0,0-.12.19.16.16,0,0,0,.19.12,2.83,2.83,0,0,1,.58,0,5.73,5.73,0,0,1,.58.07,2.22,2.22,0,0,1,.58.2,1.49,1.49,0,0,1,.58.44v0a1.36,1.36,0,0,1-.58.43,1.88,1.88,0,0,1-.58.19,3.83,3.83,0,0,1-.58.07,2.27,2.27,0,0,1-.58,0h-.06a.15.15,0,0,0-.12.19.15.15,0,0,0,.18.12,2.83,2.83,0,0,1,.58,0,3.83,3.83,0,0,1,.58.07,1.88,1.88,0,0,1,.58.19,1.48,1.48,0,0,1,.52.36,1.52,1.52,0,0,1-.52.37,2.22,2.22,0,0,1-.58.2,5.73,5.73,0,0,1-.58.07,2.83,2.83,0,0,1-.58,0H63.9a.16.16,0,0,0-.12.19.15.15,0,0,0,.19.12,2.26,2.26,0,0,1,.58,0,5.7,5.7,0,0,1,.58.06,2.22,2.22,0,0,1,.58.2,1.52,1.52,0,0,1,.52.37,1.48,1.48,0,0,1-.52.36,1.88,1.88,0,0,1-.58.19,3.83,3.83,0,0,1-.58.07,2.83,2.83,0,0,1-.58,0h-.06a.15.15,0,0,0-.12.19.15.15,0,0,0,.18.12,2.83,2.83,0,0,1,.58,0,3.83,3.83,0,0,1,.58.07,1.88,1.88,0,0,1,.58.19,1.45,1.45,0,0,1,.58.43v0a1.49,1.49,0,0,1-.58.44,2.22,2.22,0,0,1-.58.2,5.73,5.73,0,0,1-.58.07,2.83,2.83,0,0,1-.58,0,.08.08,0,0,0-.07,0,.16.16,0,0,0-.12.19.15.15,0,0,0,.19.12,2.26,2.26,0,0,1,.58,0,5.7,5.7,0,0,1,.58.06,2.22,2.22,0,0,1,.58.2,1.43,1.43,0,0,1,.58.45v0a1.55,1.55,0,0,1-.58.43,2.62,2.62,0,0,1-.58.19,5.7,5.7,0,0,1-.58.06,2.26,2.26,0,0,1-.58,0,.06.06,0,0,0-.06,0,.15.15,0,1,0,.06.3,2.26,2.26,0,0,1,.58,0,5.7,5.7,0,0,1,.58.06,2.62,2.62,0,0,1,.58.19,1.49,1.49,0,0,1,.57.42,1.53,1.53,0,0,1-.57.43,1.88,1.88,0,0,1-.58.19,3.83,3.83,0,0,1-.58.07,2.26,2.26,0,0,1-.58,0,.08.08,0,0,0-.07,0,.16.16,0,0,0-.12.19.16.16,0,0,0,.19.12,2.83,2.83,0,0,1,.58,0,3.83,3.83,0,0,1,.58.07,2.22,2.22,0,0,1,.58.2,1.49,1.49,0,0,1,.58.44v0a1.36,1.36,0,0,1-.58.43,1.88,1.88,0,0,1-.58.19,3.83,3.83,0,0,1-.58.07,2.27,2.27,0,0,1-.58,0h-.06a.15.15,0,0,0-.12.19A.15.15,0,0,0,64,34a2.83,2.83,0,0,1,.58,0,3.83,3.83,0,0,1,.58.07,1.88,1.88,0,0,1,.58.19,1.55,1.55,0,0,1,.58.43v0a1.49,1.49,0,0,1-.58.44,1.91,1.91,0,0,1-.58.2,3.83,3.83,0,0,1-.58.07,2.27,2.27,0,0,1-.58,0H63.9a.17.17,0,0,0-.12.19.16.16,0,0,0,.19.13,2.83,2.83,0,0,1,.58,0,3.83,3.83,0,0,1,.58.07,1.91,1.91,0,0,1,.58.2,1.4,1.4,0,0,1,.52.37,1.63,1.63,0,0,1-.52.36,2.62,2.62,0,0,1-.58.19,5.7,5.7,0,0,1-.58.06,2.26,2.26,0,0,1-.58,0h-.06a.15.15,0,1,0,.06.3,2.26,2.26,0,0,1,.58,0,5.7,5.7,0,0,1,.58.06,2.62,2.62,0,0,1,.58.19,1.55,1.55,0,0,1,.58.43v0a1.49,1.49,0,0,1-.58.44,1.91,1.91,0,0,1-.58.2,3.83,3.83,0,0,1-.58.07,2.27,2.27,0,0,1-.58,0H63.9a.17.17,0,0,0-.12.19.16.16,0,0,0,.19.13,2.27,2.27,0,0,1,.58,0,3.83,3.83,0,0,1,.58.07,1.91,1.91,0,0,1,.58.2,1.49,1.49,0,0,1,.58.44v0a1.45,1.45,0,0,1-.58.43,1.88,1.88,0,0,1-.58.19,3.83,3.83,0,0,1-.58.07,2.83,2.83,0,0,1-.58,0h-.06a.15.15,0,0,0-.12.19.16.16,0,0,0,.18.12,2.83,2.83,0,0,1,.58,0,3.83,3.83,0,0,1,.58.07,1.88,1.88,0,0,1,.58.19,1.46,1.46,0,0,1,.57.41,1.53,1.53,0,0,1-.57.43,2.22,2.22,0,0,1-.58.2,5.73,5.73,0,0,1-.58.07,2.83,2.83,0,0,1-.58,0H63.9a.16.16,0,0,0-.12.19.15.15,0,0,0,.19.12,2.26,2.26,0,0,1,.58,0,3.83,3.83,0,0,1,.58.07,1.88,1.88,0,0,1,.58.19,1.43,1.43,0,0,1,.58.45v0a1.55,1.55,0,0,1-.58.43,2.19,2.19,0,0,1-.58.19,5.7,5.7,0,0,1-.58.06,2.26,2.26,0,0,1-.58,0h-.06a.15.15,0,0,0-.12.18.14.14,0,0,0,.18.12,2.26,2.26,0,0,1,.58,0,5.7,5.7,0,0,1,.58.06,2.62,2.62,0,0,1,.58.19,1.55,1.55,0,0,1,.53.37,1.43,1.43,0,0,1-.53.37,1.88,1.88,0,0,1-.58.19,3.83,3.83,0,0,1-.58.07A2.27,2.27,0,0,1,64,45h-.06a.15.15,0,0,0-.12.19.15.15,0,0,0,.18.12,2.83,2.83,0,0,1,.58,0,3.83,3.83,0,0,1,.58.07,1.88,1.88,0,0,1,.58.19,1.49,1.49,0,0,1,.57.42,1.39,1.39,0,0,1-.57.42,1.91,1.91,0,0,1-.58.2,3.83,3.83,0,0,1-.58.07,2.83,2.83,0,0,1-.58,0H63.9a.17.17,0,0,0-.12.19.16.16,0,0,0,.19.13,2.27,2.27,0,0,1,.58,0,3.83,3.83,0,0,1,.58.07,1.91,1.91,0,0,1,.58.2,1.49,1.49,0,0,1,.58.44v0a1.55,1.55,0,0,1-.58.43,1.88,1.88,0,0,1-.58.19,3.83,3.83,0,0,1-.58.07,2.83,2.83,0,0,1-.58,0h-.06a.15.15,0,0,0-.12.18.16.16,0,0,0,.18.13,2.27,2.27,0,0,1,.58,0,3.83,3.83,0,0,1,.58.07,1.88,1.88,0,0,1,.58.19,1.36,1.36,0,0,1,.58.43h0a1.36,1.36,0,0,1-.58.43,2.22,2.22,0,0,1-.58.2,5.7,5.7,0,0,1-.58.06,2.27,2.27,0,0,1-.58,0h-.06a.15.15,0,0,0-.12.19.15.15,0,0,0,.18.12,2.83,2.83,0,0,1,.58,0,3.83,3.83,0,0,1,.58.07,1.88,1.88,0,0,1,.58.19,1.49,1.49,0,0,1,.57.42,1.39,1.39,0,0,1-.57.42,1.91,1.91,0,0,1-.58.2,3.83,3.83,0,0,1-.58.07,2.27,2.27,0,0,1-.58,0H63.9a.17.17,0,0,0-.12.19.16.16,0,0,0,.19.13,2.27,2.27,0,0,1,.58,0,3.83,3.83,0,0,1,.58.07,1.91,1.91,0,0,1,.58.2,1.49,1.49,0,0,1,.58.44v0a1.45,1.45,0,0,1-.58.43,1.88,1.88,0,0,1-.58.19,3.83,3.83,0,0,1-.58.07,2.83,2.83,0,0,1-.58,0h-.06a.15.15,0,0,0-.12.18.16.16,0,0,0,.18.13,2.27,2.27,0,0,1,.58,0,3.83,3.83,0,0,1,.58.07,1.88,1.88,0,0,1,.58.19,1.43,1.43,0,0,1,.53.37,1.55,1.55,0,0,1-.53.37,2.62,2.62,0,0,1-.58.19,5.7,5.7,0,0,1-.58.06,2.26,2.26,0,0,1-.58,0h-.06a.15.15,0,0,0-.12.18A.14.14,0,0,0,64,55a2.26,2.26,0,0,1,.58,0,5.7,5.7,0,0,1,.58.06,2.62,2.62,0,0,1,.58.19,1.49,1.49,0,0,1,.57.42,1.53,1.53,0,0,1-.57.43,1.88,1.88,0,0,1-.58.19,3.83,3.83,0,0,1-.58.07,2.26,2.26,0,0,1-.58,0H63.9a.16.16,0,0,0-.12.19.16.16,0,0,0,.19.12,2.83,2.83,0,0,1,.58,0,5.73,5.73,0,0,1,.58.07,2.22,2.22,0,0,1,.58.2,1.49,1.49,0,0,1,.58.44,1.49,1.49,0,0,1-.58.44,2.22,2.22,0,0,1-.58.2,5.73,5.73,0,0,1-.58.07,2.83,2.83,0,0,1-.58,0H63.9a.16.16,0,0,0-.12.19.15.15,0,0,0,.19.12,2.26,2.26,0,0,1,.58,0,5.7,5.7,0,0,1,.58.06,2.22,2.22,0,0,1,.58.2,1.46,1.46,0,0,1,.57.44,1.53,1.53,0,0,1-.57.43,2.22,2.22,0,0,1-.58.2,5.7,5.7,0,0,1-.58.06,2.26,2.26,0,0,1-.58,0H63.9a.16.16,0,0,0-.12.19.16.16,0,0,0,.19.12,2.83,2.83,0,0,1,.58,0,5.73,5.73,0,0,1,.58.07,2.22,2.22,0,0,1,.58.2,1.49,1.49,0,0,1,.58.44V61H83.8v-.51a1.42,1.42,0,0,1,.58-.44,2.1,2.1,0,0,1,.58-.2,5.41,5.41,0,0,1,.58-.07,2.88,2.88,0,0,1,.58,0h.06a.16.16,0,0,0,.13-.19.16.16,0,0,0-.19-.12,2.28,2.28,0,0,1-.58,0,5.42,5.42,0,0,1-.58-.06,2.1,2.1,0,0,1-.58-.2,1.53,1.53,0,0,1-.57-.43,1.46,1.46,0,0,1,.57-.44,2.1,2.1,0,0,1,.58-.2,5.42,5.42,0,0,1,.58-.06,2.28,2.28,0,0,1,.58,0h.06a.16.16,0,0,0,.13-.19.17.17,0,0,0-.19-.12,2.88,2.88,0,0,1-.58,0,5.41,5.41,0,0,1-.58-.07,2.1,2.1,0,0,1-.58-.2,1.42,1.42,0,0,1-.58-.44,1.42,1.42,0,0,1,.58-.44,2.1,2.1,0,0,1,.58-.2,5.41,5.41,0,0,1,.58-.07,2.88,2.88,0,0,1,.58,0h.06a.16.16,0,0,0,.13-.19.16.16,0,0,0-.19-.12,2.28,2.28,0,0,1-.58,0,3.68,3.68,0,0,1-.58-.07,1.8,1.8,0,0,1-.58-.19,1.43,1.43,0,0,1-.52-.37,1.29,1.29,0,0,1,.52-.36A1.8,1.8,0,0,1,85,55.1a3.68,3.68,0,0,1,.58-.07,2.3,2.3,0,0,1,.58,0h.06a.16.16,0,0,0,.12-.19.16.16,0,0,0-.18-.12,2.88,2.88,0,0,1-.58,0,3.68,3.68,0,0,1-.58-.07,1.8,1.8,0,0,1-.58-.19,1.48,1.48,0,0,1-.58-.43v0a1.42,1.42,0,0,1,.58-.44,2.1,2.1,0,0,1,.58-.2,5.41,5.41,0,0,1,.58-.07,2.88,2.88,0,0,1,.58,0,.06.06,0,0,0,.06,0,.16.16,0,0,0,.13-.19.16.16,0,0,0-.19-.12,2.28,2.28,0,0,1-.58,0,3.68,3.68,0,0,1-.58-.07,1.8,1.8,0,0,1-.58-.19,1.37,1.37,0,0,1-.58-.45v0a1.48,1.48,0,0,1,.58-.43,2.08,2.08,0,0,1,.58-.19,3.68,3.68,0,0,1,.58-.06,2.28,2.28,0,0,1,.58,0,.06.06,0,0,0,.06,0,.16.16,0,0,0,.12-.18.15.15,0,0,0-.18-.12,2.28,2.28,0,0,1-.58,0A5.42,5.42,0,0,1,85,51.4a2.46,2.46,0,0,1-.58-.19,1.61,1.61,0,0,1-.57-.42,1.53,1.53,0,0,1,.57-.43,1.8,1.8,0,0,1,.58-.19,3.68,3.68,0,0,1,.58-.07,2.28,2.28,0,0,1,.58,0h.06a.16.16,0,0,0,.13-.19.17.17,0,0,0-.19-.12,2.88,2.88,0,0,1-.58,0,5.41,5.41,0,0,1-.58-.07,2.1,2.1,0,0,1-.58-.2,1.42,1.42,0,0,1-.58-.44v0a1.31,1.31,0,0,1,.58-.43,1.8,1.8,0,0,1,.58-.19,3.68,3.68,0,0,1,.58-.07,2.3,2.3,0,0,1,.58,0h.06a.16.16,0,0,0,.12-.19.16.16,0,0,0-.18-.12,2.88,2.88,0,0,1-.58,0,3.68,3.68,0,0,1-.58-.07,1.8,1.8,0,0,1-.58-.19,1.48,1.48,0,0,1-.58-.43v0a1.45,1.45,0,0,1,.58-.45,2.08,2.08,0,0,1,.58-.19,3.68,3.68,0,0,1,.58-.07,2.3,2.3,0,0,1,.58,0h.06a.16.16,0,0,0-.06-.32,2.88,2.88,0,0,1-.58,0,3.68,3.68,0,0,1-.58-.07,1.82,1.82,0,0,1-.58-.2,1.43,1.43,0,0,1-.52-.37,1.53,1.53,0,0,1,.52-.36,2.08,2.08,0,0,1,.58-.19,5.42,5.42,0,0,1,.58-.06,2.28,2.28,0,0,1,.58,0h.06a.16.16,0,0,0,.12-.18.15.15,0,0,0-.18-.12,2.28,2.28,0,0,1-.58,0A5.42,5.42,0,0,1,85,45a2.46,2.46,0,0,1-.58-.19,1.48,1.48,0,0,1-.58-.43v0a1.42,1.42,0,0,1,.58-.44,1.82,1.82,0,0,1,.58-.2,3.68,3.68,0,0,1,.58-.07,2.3,2.3,0,0,1,.58,0h.06a.16.16,0,0,0-.06-.32,2.88,2.88,0,0,1-.58,0,3.68,3.68,0,0,1-.58-.07,1.82,1.82,0,0,1-.58-.2,1.42,1.42,0,0,1-.58-.44v0a1.39,1.39,0,0,1,.58-.43A1.8,1.8,0,0,1,85,42a3.68,3.68,0,0,1,.58-.07,2.88,2.88,0,0,1,.58,0h.06a.16.16,0,0,0,.12-.19.16.16,0,0,0-.18-.12,2.88,2.88,0,0,1-.58,0,3.68,3.68,0,0,1-.58-.07,1.8,1.8,0,0,1-.58-.19,1.46,1.46,0,0,1-.57-.41,1.53,1.53,0,0,1,.57-.43,2.1,2.1,0,0,1,.58-.2,3.68,3.68,0,0,1,.58-.07,2.88,2.88,0,0,1,.58,0h.06a.16.16,0,0,0,.13-.19.16.16,0,0,0-.19-.12,2.28,2.28,0,0,1-.58,0A3.68,3.68,0,0,1,85,40a1.8,1.8,0,0,1-.58-.19,1.37,1.37,0,0,1-.58-.45v0a1.48,1.48,0,0,1,.58-.43,2.08,2.08,0,0,1,.58-.19,3.68,3.68,0,0,1,.58-.06,2.28,2.28,0,0,1,.58,0h.06a.16.16,0,0,0,.12-.18.15.15,0,0,0-.18-.12,2.28,2.28,0,0,1-.58,0,5.42,5.42,0,0,1-.58-.06,2.46,2.46,0,0,1-.58-.19,1.53,1.53,0,0,1-.52-.36,1.32,1.32,0,0,1,.52-.37,1.82,1.82,0,0,1,.58-.2,3.68,3.68,0,0,1,.58-.07,2.3,2.3,0,0,1,.58,0h.06a.16.16,0,1,0-.06-.32,2.88,2.88,0,0,1-.58,0,3.68,3.68,0,0,1-.58-.07,1.82,1.82,0,0,1-.58-.2,1.32,1.32,0,0,1-.52-.37,1.53,1.53,0,0,1,.52-.36,2.46,2.46,0,0,1,.58-.19,5.42,5.42,0,0,1,.58-.06,2.28,2.28,0,0,1,.58,0h.06a.15.15,0,0,0,.12-.18.15.15,0,0,0-.18-.12,2.28,2.28,0,0,1-.58,0,5.42,5.42,0,0,1-.58-.06,2.46,2.46,0,0,1-.58-.19,1.48,1.48,0,0,1-.58-.43v0a1.42,1.42,0,0,1,.58-.44,1.82,1.82,0,0,1,.58-.2,3.68,3.68,0,0,1,.58-.07,2.3,2.3,0,0,1,.58,0h.06a.16.16,0,0,0-.06-.32,2.3,2.3,0,0,1-.58,0A3.68,3.68,0,0,1,85,33.7a1.82,1.82,0,0,1-.58-.2,1.42,1.42,0,0,1-.58-.44v0a1.39,1.39,0,0,1,.58-.43A1.8,1.8,0,0,1,85,32.4a3.68,3.68,0,0,1,.58-.07,2.88,2.88,0,0,1,.58,0h.06a.16.16,0,0,0,.12-.19.16.16,0,0,0-.18-.12,2.88,2.88,0,0,1-.58,0A3.68,3.68,0,0,1,85,32a1.8,1.8,0,0,1-.58-.19,1.46,1.46,0,0,1-.57-.41,1.53,1.53,0,0,1,.57-.43,2.1,2.1,0,0,1,.58-.2,5.41,5.41,0,0,1,.58-.07,2.88,2.88,0,0,1,.58,0,.06.06,0,0,0,.06,0,.16.16,0,0,0,.13-.19.16.16,0,0,0-.19-.12,2.28,2.28,0,0,1-.58,0,3.68,3.68,0,0,1-.58-.07,1.8,1.8,0,0,1-.58-.19,1.37,1.37,0,0,1-.58-.45v0a1.48,1.48,0,0,1,.58-.43,2.08,2.08,0,0,1,.58-.19,5.42,5.42,0,0,1,.58-.06,2.28,2.28,0,0,1,.58,0,.06.06,0,0,0,.06,0,.16.16,0,0,0,.12-.18.15.15,0,0,0-.18-.12,2.28,2.28,0,0,1-.58,0,5.42,5.42,0,0,1-.58-.06,2.46,2.46,0,0,1-.58-.19,1.48,1.48,0,0,1-.58-.43v0a1.37,1.37,0,0,1,.58-.45,2.1,2.1,0,0,1,.58-.2,5.42,5.42,0,0,1,.58-.06,2.28,2.28,0,0,1,.58,0h.06a.16.16,0,0,0,.13-.19.17.17,0,0,0-.19-.12,2.28,2.28,0,0,1-.58,0,3.68,3.68,0,0,1-.58-.06,2.1,2.1,0,0,1-.58-.2,1.43,1.43,0,0,1-.52-.37,1.4,1.4,0,0,1,.52-.36A1.8,1.8,0,0,1,85,26a3.68,3.68,0,0,1,.58-.07,2.88,2.88,0,0,1,.58,0h.06a.16.16,0,0,0,.12-.19.16.16,0,0,0-.18-.12,2.88,2.88,0,0,1-.58,0,3.68,3.68,0,0,1-.58-.07,1.8,1.8,0,0,1-.58-.19A1.31,1.31,0,0,1,83.8,25v0a1.37,1.37,0,0,1,.58-.45,2.1,2.1,0,0,1,.58-.2,5.42,5.42,0,0,1,.58-.06,2.28,2.28,0,0,1,.58,0,.06.06,0,0,0,.06,0,.16.16,0,0,0,.13-.19.17.17,0,0,0-.19-.12,2.88,2.88,0,0,1-.58,0,5.41,5.41,0,0,1-.58-.07,2.1,2.1,0,0,1-.58-.2,1.42,1.42,0,0,1-.58-.44v0a1.31,1.31,0,0,1,.58-.43,2.1,2.1,0,0,1,.58-.2,5.42,5.42,0,0,1,.58-.06,2.28,2.28,0,0,1,.58,0,.06.06,0,0,0,.06,0,.15.15,0,0,0,.12-.18.16.16,0,0,0-.18-.12,2.88,2.88,0,0,1-.58,0,5.41,5.41,0,0,1-.58-.07,2.08,2.08,0,0,1-.58-.19,1.49,1.49,0,0,1-.57-.42,1.39,1.39,0,0,1,.57-.42A1.82,1.82,0,0,1,85,21a3.68,3.68,0,0,1,.58-.07,2.3,2.3,0,0,1,.58,0h.06a.16.16,0,1,0-.06-.32,2.88,2.88,0,0,1-.58,0,3.68,3.68,0,0,1-.58-.07,1.82,1.82,0,0,1-.58-.2A1.42,1.42,0,0,1,83.8,20v0a1.39,1.39,0,0,1,.58-.43,1.8,1.8,0,0,1,.58-.19,3.68,3.68,0,0,1,.58-.07,2.88,2.88,0,0,1,.58,0h.06a.16.16,0,0,0,.12-.19.16.16,0,0,0-.18-.12,2.88,2.88,0,0,1-.58,0A3.68,3.68,0,0,1,85,19a1.8,1.8,0,0,1-.58-.19,1.43,1.43,0,0,1-.53-.37,1.55,1.55,0,0,1,.53-.37,2.08,2.08,0,0,1,.58-.19,3.68,3.68,0,0,1,.58-.06,2.28,2.28,0,0,1,.58,0,.06.06,0,0,0,.06,0,.16.16,0,0,0,.12-.18.15.15,0,0,0-.18-.12,2.28,2.28,0,0,1-.58,0A5.42,5.42,0,0,1,85,17.5a2.46,2.46,0,0,1-.58-.19,1.61,1.61,0,0,1-.57-.42,1.53,1.53,0,0,1,.57-.43,2.1,2.1,0,0,1,.58-.2,5.42,5.42,0,0,1,.58-.06,2.28,2.28,0,0,1,.58,0h.06a.16.16,0,0,0,.13-.19.17.17,0,0,0-.19-.12,2.88,2.88,0,0,1-.58,0,5.41,5.41,0,0,1-.58-.07,2.1,2.1,0,0,1-.58-.2,1.42,1.42,0,0,1-.58-.44v0a1.31,1.31,0,0,1,.58-.43,2.1,2.1,0,0,1,.58-.2,5.42,5.42,0,0,1,.58-.06,2.86,2.86,0,0,1,.58,0h.06a.15.15,0,0,0,.12-.18.16.16,0,0,0-.18-.12,2.88,2.88,0,0,1-.58,0,3.68,3.68,0,0,1-.58-.07,2.08,2.08,0,0,1-.58-.19,1.48,1.48,0,0,1-.58-.43h0a1.48,1.48,0,0,1,.58-.43A2.08,2.08,0,0,1,85,13a3.68,3.68,0,0,1,.58-.06,2.28,2.28,0,0,1,.58,0h.06a.16.16,0,0,0,.12-.18.15.15,0,0,0-.18-.12,2.28,2.28,0,0,1-.58,0,5.42,5.42,0,0,1-.58-.06,2.46,2.46,0,0,1-.58-.19,1.61,1.61,0,0,1-.57-.42,1.53,1.53,0,0,1,.57-.43,2.1,2.1,0,0,1,.58-.2,5.42,5.42,0,0,1,.58-.06,2.28,2.28,0,0,1,.58,0h.06a.16.16,0,0,0,.13-.19.17.17,0,0,0-.19-.12,2.88,2.88,0,0,1-.58,0A5.41,5.41,0,0,1,85,11a2.1,2.1,0,0,1-.58-.2,1.42,1.42,0,0,1-.58-.44v0a1.31,1.31,0,0,1,.58-.43,2.1,2.1,0,0,1,.58-.2,5.42,5.42,0,0,1,.58-.06,2.86,2.86,0,0,1,.58,0h.06a.15.15,0,0,0,.12-.18.16.16,0,0,0-.18-.12,2.88,2.88,0,0,1-.58,0A5.41,5.41,0,0,1,85,9.33a2.08,2.08,0,0,1-.58-.19,1.55,1.55,0,0,1-.53-.37,1.55,1.55,0,0,1,.53-.37A1.8,1.8,0,0,1,85,8.21a3.68,3.68,0,0,1,.58-.07,2.88,2.88,0,0,1,.58,0h.06A.16.16,0,0,0,86.3,8a.16.16,0,0,0-.18-.12,2.88,2.88,0,0,1-.58,0A3.68,3.68,0,0,1,85,7.84a1.8,1.8,0,0,1-.58-.19,1.46,1.46,0,0,1-.57-.41,1.53,1.53,0,0,1,.57-.43,2.1,2.1,0,0,1,.58-.2,5.41,5.41,0,0,1,.58-.07,2.88,2.88,0,0,1,.58,0h.06a.16.16,0,0,0,.13-.19.16.16,0,0,0-.19-.12,2.28,2.28,0,0,1-.58,0A3.68,3.68,0,0,1,85,6.23,1.8,1.8,0,0,1,84.38,6a1.67,1.67,0,0,1-.54-.39,1.49,1.49,0,0,1,.54-.38A2.08,2.08,0,0,1,85,5.08,5.42,5.42,0,0,1,85.54,5a2.28,2.28,0,0,1,.58,0h.06a.16.16,0,0,0,.12-.18.15.15,0,0,0-.18-.12,2.28,2.28,0,0,1-.58,0A5.42,5.42,0,0,1,85,4.72a2.46,2.46,0,0,1-.58-.19,1.61,1.61,0,0,1-.57-.42A1.53,1.53,0,0,1,84.38,3.68Z" transform="translate(-21.69 0)"/>
    <path class="a" d="M79.14,74.21a1.14,1.14,0,0,0,.84,0,1.2,1.2,0,0,0,.34-.23,1.09,1.09,0,0,0,.24-1.18,1.21,1.21,0,0,0-.24-.35,1.2,1.2,0,0,0-.34-.23,1.14,1.14,0,0,0-.84,0,1.36,1.36,0,0,0-.34.23,1.41,1.41,0,0,0-.23.35,1.14,1.14,0,0,0,0,.84,1.08,1.08,0,0,0,.57.57Z" transform="translate(-21.69 0)"/>
    <path class="a" d="M72.91,75.84l3.31,2,.3.15a.76.76,0,0,0,.32.06,1,1,0,0,0,.61-.19.84.84,0,0,0,.31-.6V69.15a.84.84,0,0,0-.31-.59,1,1,0,0,0-.61-.19.79.79,0,0,0-.32.06l-.3.14-3.31,2-3.31,2a1.56,1.56,0,0,0-.22.28.47.47,0,0,0-.08.29.48.48,0,0,0,.08.3,2,2,0,0,0,.22.28Zm1-3.89,2.06-1.27v5.09L73.87,74.5,71.8,73.22Z" transform="translate(-21.69 0)"/>
    <path class="a" d="M76.62,85.67a.73.73,0,0,0,.11-.38.56.56,0,0,0-.1-.35.76.76,0,0,0-.23-.24,1.27,1.27,0,0,0-.32-.13,1.4,1.4,0,0,0-.34,0H71a3.66,3.66,0,0,0-1.14.17,3.33,3.33,0,0,0-1,.52,2.69,2.69,0,0,0-.66.69,3.74,3.74,0,0,0-.43.78,3,3,0,0,0-.22,1.15,3.29,3.29,0,0,0,.27,1.33,3.33,3.33,0,0,0,.73,1.07,3.33,3.33,0,0,0,2.41,1,3.45,3.45,0,0,0,2.44-1,3.45,3.45,0,0,0,.73-1.07,3.35,3.35,0,0,0,.26-1.3,3.94,3.94,0,0,0-.11-.89,3,3,0,0,0-.4-.88H76l.13,0,.15-.07A.76.76,0,0,0,76.62,85.67ZM72.4,88.53a2,2,0,0,1-.33.57,1.58,1.58,0,0,1-.52.4,1.47,1.47,0,0,1-.67.15h-.14a1.46,1.46,0,0,1-.6-.24,2,2,0,0,1-.45-.42,1.88,1.88,0,0,1-.27-.55,2,2,0,0,1-.1-.6,1.8,1.8,0,0,1,.11-.59,1.74,1.74,0,0,1,.3-.55,1.59,1.59,0,0,1,.48-.41,1.49,1.49,0,0,1,.67-.19h.23a.69.69,0,0,1,.24.05,2.12,2.12,0,0,1,.49.27,2,2,0,0,1,.36.4,1.72,1.72,0,0,1,.24.49,2,2,0,0,1,.07.56A1.91,1.91,0,0,1,72.4,88.53Z" transform="translate(-21.69 0)"/>
    <path class="a" d="M82.26,82.78a3,3,0,0,0-.43-.57,2.71,2.71,0,0,0-.55-.41,2.37,2.37,0,0,0-.62-.25,2.48,2.48,0,0,0-.66-.08,2.61,2.61,0,0,0-1.12.25,2.5,2.5,0,0,0-.92.77,2.18,2.18,0,0,0-.24.41,2.44,2.44,0,0,0-.13.44,3.87,3.87,0,0,0-.06.46c0,.16,0,.31,0,.47s0,.33,0,.49,0,.32,0,.48a.19.19,0,0,1,0,.08v.08a.56.56,0,0,0,.08.3.58.58,0,0,0,.2.21.84.84,0,0,0,.27.13,1,1,0,0,0,.29,0,.88.88,0,0,0,.57-.18.89.89,0,0,0,.29-.54c0-.14,0-.3,0-.48s0-.35,0-.53,0-.29,0-.43a1.67,1.67,0,0,1,.07-.4,1,1,0,0,1,.19-.35,1.21,1.21,0,0,1,.4-.26H80a.76.76,0,0,1,.38.09,1,1,0,0,1,.26.25,1.19,1.19,0,0,1,.16.34,1.5,1.5,0,0,1,0,.37v1.28a.19.19,0,0,1,0,.08v.08a.58.58,0,0,0,.08.3.67.67,0,0,0,.2.21.84.84,0,0,0,.27.13.92.92,0,0,0,.29,0,.88.88,0,0,0,.57-.18.89.89,0,0,0,.29-.54c0-.14,0-.3,0-.46s0-.34,0-.52a5.93,5.93,0,0,0-.06-.84A2.11,2.11,0,0,0,82.26,82.78Z" transform="translate(-21.69 0)"/>
    <path class="a" d="M75.46,103.23a1.38,1.38,0,0,0-.08-.2c0-.06,0-.11-.07-.16l-.09-.15-.12-.18a2.76,2.76,0,0,0-.7-.78,3.59,3.59,0,0,0-1.55-.71,3.68,3.68,0,0,0-.66-.06,3.23,3.23,0,0,0-.82.1,3.63,3.63,0,0,0-.78.28c0-.47,0-1,0-1.42V98.53a.78.78,0,0,1,0-.14l0-.11a.54.54,0,0,0,0-.11l-.09-.12a1,1,0,0,0-.34-.22,1.1,1.1,0,0,0-.4-.08,1.25,1.25,0,0,0-.32,0,1.14,1.14,0,0,0-.29.15.77.77,0,0,0-.22.22.61.61,0,0,0-.08.3v.09s0,.06,0,.1v5.49s0,.08,0,.11v.09a3.12,3.12,0,0,0,.14.93,3.09,3.09,0,0,0,.4.79,3.17,3.17,0,0,0,.58.63,3.56,3.56,0,0,0,.72.47,4.09,4.09,0,0,0,.8.3,3.45,3.45,0,0,0,1.65,0,3.19,3.19,0,0,0,.78-.29,3.63,3.63,0,0,0,.7-.48,3.8,3.8,0,0,0,.57-.68l.12-.19.09-.14.07-.15.08-.21c.05-.16.09-.33.13-.52a3.53,3.53,0,0,0,0-1.06C75.55,103.56,75.51,103.39,75.46,103.23Zm-1.78,1.66a1.64,1.64,0,0,1-.32.56,1.54,1.54,0,0,1-.51.4,1.51,1.51,0,0,1-.68.15,1.55,1.55,0,0,1-.56-.11,1.31,1.31,0,0,1-.47-.32,1.92,1.92,0,0,1-.54-1.29,4.51,4.51,0,0,1,.08-.53,1.11,1.11,0,0,1,.23-.49,2.35,2.35,0,0,1,.26-.29,1.58,1.58,0,0,1,.29-.22,1,1,0,0,1,.34-.15,1.29,1.29,0,0,1,.4-.06,1.23,1.23,0,0,1,.63.16,1.65,1.65,0,0,1,.51.39,2.06,2.06,0,0,1,.33.55,1.71,1.71,0,0,1,.12.62A1.74,1.74,0,0,1,73.68,104.89Z" transform="translate(-21.69 0)"/>
    <path class="a" d="M69.25,97.1a1.15,1.15,0,0,0,.41.08,1.16,1.16,0,0,0,.42-.08,1.25,1.25,0,0,0,.35-.23,1.13,1.13,0,0,0,.23-.34,1,1,0,0,0,0-.84,1,1,0,0,0-.23-.34.93.93,0,0,0-.35-.23,1,1,0,0,0-.42-.09,1.1,1.1,0,0,0-.75.32,1,1,0,0,0-.23.34,1,1,0,0,0,0,.84,1.13,1.13,0,0,0,.23.34A1.36,1.36,0,0,0,69.25,97.1Z" transform="translate(-21.69 0)"/>
    <path class="a" d="M80.48,98.39a2.51,2.51,0,0,0-1.63-.63,2.5,2.5,0,0,0-.85.15A2.36,2.36,0,0,0,76.69,99a2.29,2.29,0,0,0-.26.93v.23a2.25,2.25,0,0,0,.24.86,2.16,2.16,0,0,0,.52.68,2.41,2.41,0,0,0,.75.46,2.51,2.51,0,0,0,.92.17,2.51,2.51,0,0,0,1.62-.62,2.52,2.52,0,0,0,.57-.72,2.14,2.14,0,0,0,0-1.89A2.52,2.52,0,0,0,80.48,98.39Zm-1,2a.87.87,0,0,1-.14.27.7.7,0,0,1-.22.2.66.66,0,0,1-.32.08.52.52,0,0,1-.31-.09.77.77,0,0,1-.22-.22,1.13,1.13,0,0,1-.13-.27c0-.1,0-.19,0-.26s0-.06,0-.13a.46.46,0,0,1,0-.14l0-.06,0-.07,0-.07a.06.06,0,0,0,0,0s0,0,0,0a1.63,1.63,0,0,1,.23-.22.52.52,0,0,1,.32-.11.62.62,0,0,1,.55.29.87.87,0,0,1,.14.27,1,1,0,0,1,0,.3A1,1,0,0,1,79.51,100.35Z" transform="translate(-21.69 0)"/>
  </g>
</svg>
